<?xml version="1.0" standalone="no"?>
<!DOCTYPE svg PUBLIC "-//W3C//DTD SVG 20010904//EN"
 "http://www.w3.org/TR/2001/REC-SVG-20010904/DTD/svg10.dtd">
<svg version="1.0" xmlns="http://www.w3.org/2000/svg"
 width="284.000000pt" height="367.000000pt" viewBox="0 0 284.000000 367.000000"
 preserveAspectRatio="xMidYMid meet">

<g transform="translate(0.000000,367.000000) scale(0.100000,-0.100000)"
fill="#000000" stroke="none">
<path d="M920 3640 c-234 -50 -425 -155 -591 -327 -388 -399 -432 -1026 -103
-1474 218 -296 559 -469 924 -469 245 0 493 80 677 217 l58 43 5 -742 c5 -677
7 -746 22 -774 76 -138 297 -139 370 -1 l23 42 3 1600 c2 1146 0 1613 -8 1645
-24 95 -97 149 -202 150 -31 0 -69 -5 -85 -11 -38 -14 -81 -56 -104 -102 l-20
-37 -56 41 c-125 93 -311 175 -463 203 -115 22 -339 20 -450 -4z m405 -455
c33 -8 98 -34 145 -57 67 -33 101 -58 165 -122 89 -91 134 -159 173 -268 24
-67 27 -86 27 -218 0 -133 -3 -152 -28 -225 -73 -205 -220 -353 -429 -431 -59
-22 -95 -28 -190 -32 -220 -9 -370 48 -519 198 -73 73 -94 101 -132 180 -58
123 -72 182 -71 310 2 267 137 487 377 613 140 73 321 93 482 52z"/>
</g>
</svg>
